<mxfile host="Electron" modified="2023-05-08T08:54:42.542Z" agent="Mozilla/5.0 (Windows NT 10.0; Win64; x64) AppleWebKit/537.36 (KHTML, like Gecko) draw.io/21.2.8 Chrome/112.0.5615.165 Electron/24.2.0 Safari/537.36" etag="iX28pXlDpuOwI7ReLFdZ" version="21.2.8" type="device">
  <diagram name="Page-1" id="6Dw29AJgoM9PCIW29X-K">
    <mxGraphModel dx="1038" dy="629" grid="1" gridSize="10" guides="1" tooltips="1" connect="1" arrows="1" fold="1" page="1" pageScale="1" pageWidth="1654" pageHeight="2336" math="0" shadow="0">
      <root>
        <mxCell id="0" />
        <mxCell id="1" parent="0" />
        <mxCell id="8x29C2rjjVVS6na5q4yD-3" value="Enigma" style="strokeWidth=1;shadow=0;dashed=0;align=center;html=1;shape=mxgraph.mockup.containers.window;align=left;verticalAlign=top;spacingLeft=8;strokeColor2=#008cff;strokeColor3=#c4c4c4;fontColor=#666666;mainText=;fontSize=17;labelBackgroundColor=none;whiteSpace=wrap;" vertex="1" parent="1">
          <mxGeometry x="80" y="80" width="920" height="680" as="geometry" />
        </mxCell>
        <mxCell id="8x29C2rjjVVS6na5q4yD-4" value="" style="rounded=0;whiteSpace=wrap;html=1;" vertex="1" parent="1">
          <mxGeometry x="100" y="130" width="240" height="450" as="geometry" />
        </mxCell>
        <mxCell id="8x29C2rjjVVS6na5q4yD-5" value="" style="rounded=0;whiteSpace=wrap;html=1;" vertex="1" parent="1">
          <mxGeometry x="680" y="290" width="300" height="450" as="geometry" />
        </mxCell>
        <mxCell id="8x29C2rjjVVS6na5q4yD-6" value="" style="rounded=0;whiteSpace=wrap;html=1;" vertex="1" parent="1">
          <mxGeometry x="360" y="290" width="300" height="450" as="geometry" />
        </mxCell>
        <mxCell id="8x29C2rjjVVS6na5q4yD-7" value="" style="rounded=0;whiteSpace=wrap;html=1;" vertex="1" parent="1">
          <mxGeometry x="100" y="590" width="240" height="150" as="geometry" />
        </mxCell>
        <mxCell id="8x29C2rjjVVS6na5q4yD-8" value="Order:" style="text;html=1;strokeColor=none;fillColor=none;align=center;verticalAlign=middle;whiteSpace=wrap;rounded=0;fontSize=20;" vertex="1" parent="1">
          <mxGeometry x="100" y="130" width="70" height="30" as="geometry" />
        </mxCell>
        <mxCell id="8x29C2rjjVVS6na5q4yD-9" value="Output" style="text;html=1;strokeColor=none;fillColor=none;align=center;verticalAlign=middle;whiteSpace=wrap;rounded=0;fontSize=20;" vertex="1" parent="1">
          <mxGeometry x="680" y="290" width="70" height="30" as="geometry" />
        </mxCell>
        <mxCell id="8x29C2rjjVVS6na5q4yD-10" value="Input" style="text;html=1;strokeColor=none;fillColor=none;align=center;verticalAlign=middle;whiteSpace=wrap;rounded=0;fontSize=20;" vertex="1" parent="1">
          <mxGeometry x="360" y="290" width="60" height="30" as="geometry" />
        </mxCell>
        <mxCell id="8x29C2rjjVVS6na5q4yD-11" value="Plugboard:" style="text;html=1;strokeColor=none;fillColor=none;align=center;verticalAlign=middle;whiteSpace=wrap;rounded=0;fontSize=20;" vertex="1" parent="1">
          <mxGeometry x="100" y="590" width="110" height="30" as="geometry" />
        </mxCell>
        <mxCell id="8x29C2rjjVVS6na5q4yD-13" value="" style="rounded=0;whiteSpace=wrap;html=1;" vertex="1" parent="1">
          <mxGeometry x="360" y="130" width="620" height="150" as="geometry" />
        </mxCell>
        <mxCell id="8x29C2rjjVVS6na5q4yD-14" value="Rotors" style="text;html=1;strokeColor=none;fillColor=none;align=center;verticalAlign=middle;whiteSpace=wrap;rounded=0;fontSize=20;" vertex="1" parent="1">
          <mxGeometry x="360" y="130" width="70" height="30" as="geometry" />
        </mxCell>
        <mxCell id="8x29C2rjjVVS6na5q4yD-12" value="" style="rounded=1;whiteSpace=wrap;html=1;" vertex="1" parent="1">
          <mxGeometry x="585" y="160" width="50" height="75" as="geometry" />
        </mxCell>
        <mxCell id="8x29C2rjjVVS6na5q4yD-15" value="" style="rounded=1;whiteSpace=wrap;html=1;" vertex="1" parent="1">
          <mxGeometry x="645" y="160" width="50" height="75" as="geometry" />
        </mxCell>
        <mxCell id="8x29C2rjjVVS6na5q4yD-16" value="" style="rounded=1;whiteSpace=wrap;html=1;" vertex="1" parent="1">
          <mxGeometry x="705" y="160" width="50" height="75" as="geometry" />
        </mxCell>
        <mxCell id="8x29C2rjjVVS6na5q4yD-17" value="I" style="text;html=1;strokeColor=none;fillColor=none;align=center;verticalAlign=middle;whiteSpace=wrap;rounded=0;fontSize=20;fontStyle=1" vertex="1" parent="1">
          <mxGeometry x="717.5" y="240" width="25" height="30" as="geometry" />
        </mxCell>
        <mxCell id="8x29C2rjjVVS6na5q4yD-18" value="II" style="text;html=1;strokeColor=none;fillColor=none;align=center;verticalAlign=middle;whiteSpace=wrap;rounded=0;fontSize=20;fontStyle=1" vertex="1" parent="1">
          <mxGeometry x="657.5" y="240" width="25" height="30" as="geometry" />
        </mxCell>
        <mxCell id="8x29C2rjjVVS6na5q4yD-19" value="III" style="text;html=1;strokeColor=none;fillColor=none;align=center;verticalAlign=middle;whiteSpace=wrap;rounded=0;fontSize=20;fontStyle=1" vertex="1" parent="1">
          <mxGeometry x="597.5" y="240" width="25" height="30" as="geometry" />
        </mxCell>
        <mxCell id="8x29C2rjjVVS6na5q4yD-20" value="A" style="text;html=1;strokeColor=none;fillColor=none;align=center;verticalAlign=middle;whiteSpace=wrap;rounded=0;fontSize=20;fontStyle=1" vertex="1" parent="1">
          <mxGeometry x="717.5" y="182.5" width="25" height="30" as="geometry" />
        </mxCell>
        <mxCell id="8x29C2rjjVVS6na5q4yD-21" value="B" style="text;html=1;strokeColor=none;fillColor=none;align=center;verticalAlign=middle;whiteSpace=wrap;rounded=0;fontSize=20;fontStyle=1" vertex="1" parent="1">
          <mxGeometry x="657.5" y="182.5" width="25" height="30" as="geometry" />
        </mxCell>
        <mxCell id="8x29C2rjjVVS6na5q4yD-22" value="C" style="text;html=1;strokeColor=none;fillColor=none;align=center;verticalAlign=middle;whiteSpace=wrap;rounded=0;fontSize=20;fontStyle=1" vertex="1" parent="1">
          <mxGeometry x="597.5" y="182.5" width="25" height="30" as="geometry" />
        </mxCell>
        <mxCell id="8x29C2rjjVVS6na5q4yD-23" value="" style="rounded=1;whiteSpace=wrap;html=1;" vertex="1" parent="1">
          <mxGeometry x="120" y="170" width="65" height="75" as="geometry" />
        </mxCell>
        <mxCell id="8x29C2rjjVVS6na5q4yD-24" value="" style="rounded=1;whiteSpace=wrap;html=1;" vertex="1" parent="1">
          <mxGeometry x="190" y="170" width="60" height="75" as="geometry" />
        </mxCell>
        <mxCell id="8x29C2rjjVVS6na5q4yD-25" value="" style="rounded=1;whiteSpace=wrap;html=1;" vertex="1" parent="1">
          <mxGeometry x="255" y="170" width="65" height="75" as="geometry" />
        </mxCell>
        <mxCell id="8x29C2rjjVVS6na5q4yD-26" value="Slot-1" style="text;html=1;strokeColor=none;fillColor=none;align=center;verticalAlign=middle;whiteSpace=wrap;rounded=0;fontSize=18;fontStyle=0" vertex="1" parent="1">
          <mxGeometry x="256.25" y="250" width="62.5" height="30" as="geometry" />
        </mxCell>
        <mxCell id="8x29C2rjjVVS6na5q4yD-27" value="Slot-2" style="text;html=1;strokeColor=none;fillColor=none;align=center;verticalAlign=middle;whiteSpace=wrap;rounded=0;fontSize=18;fontStyle=0" vertex="1" parent="1">
          <mxGeometry x="188.75" y="250" width="62.5" height="30" as="geometry" />
        </mxCell>
        <mxCell id="8x29C2rjjVVS6na5q4yD-28" value="Slot-3" style="text;html=1;strokeColor=none;fillColor=none;align=center;verticalAlign=middle;whiteSpace=wrap;rounded=0;fontSize=18;fontStyle=0" vertex="1" parent="1">
          <mxGeometry x="121.25" y="250" width="62.5" height="30" as="geometry" />
        </mxCell>
        <mxCell id="8x29C2rjjVVS6na5q4yD-29" value="I" style="text;html=1;strokeColor=none;fillColor=none;align=center;verticalAlign=middle;whiteSpace=wrap;rounded=0;fontSize=20;fontStyle=1" vertex="1" parent="1">
          <mxGeometry x="275" y="192.5" width="25" height="30" as="geometry" />
        </mxCell>
        <mxCell id="8x29C2rjjVVS6na5q4yD-30" value="II" style="text;html=1;strokeColor=none;fillColor=none;align=center;verticalAlign=middle;whiteSpace=wrap;rounded=0;fontSize=20;fontStyle=1" vertex="1" parent="1">
          <mxGeometry x="207.5" y="192.5" width="25" height="30" as="geometry" />
        </mxCell>
        <mxCell id="8x29C2rjjVVS6na5q4yD-31" value="III" style="text;html=1;strokeColor=none;fillColor=none;align=center;verticalAlign=middle;whiteSpace=wrap;rounded=0;fontSize=20;fontStyle=1" vertex="1" parent="1">
          <mxGeometry x="140" y="192.5" width="25" height="30" as="geometry" />
        </mxCell>
        <mxCell id="8x29C2rjjVVS6na5q4yD-32" value="Key:" style="text;html=1;strokeColor=none;fillColor=none;align=center;verticalAlign=middle;whiteSpace=wrap;rounded=0;fontSize=20;" vertex="1" parent="1">
          <mxGeometry x="100" y="290" width="60" height="30" as="geometry" />
        </mxCell>
        <mxCell id="8x29C2rjjVVS6na5q4yD-33" value="" style="rounded=1;whiteSpace=wrap;html=1;" vertex="1" parent="1">
          <mxGeometry x="118.75" y="330" width="65" height="75" as="geometry" />
        </mxCell>
        <mxCell id="8x29C2rjjVVS6na5q4yD-34" value="" style="rounded=1;whiteSpace=wrap;html=1;" vertex="1" parent="1">
          <mxGeometry x="188.75" y="330" width="60" height="75" as="geometry" />
        </mxCell>
        <mxCell id="8x29C2rjjVVS6na5q4yD-35" value="" style="rounded=1;whiteSpace=wrap;html=1;" vertex="1" parent="1">
          <mxGeometry x="253.75" y="330" width="65" height="75" as="geometry" />
        </mxCell>
        <mxCell id="8x29C2rjjVVS6na5q4yD-36" value="C" style="text;html=1;strokeColor=none;fillColor=none;align=center;verticalAlign=middle;whiteSpace=wrap;rounded=0;fontSize=18;fontStyle=1" vertex="1" parent="1">
          <mxGeometry x="121.25" y="355" width="62.5" height="30" as="geometry" />
        </mxCell>
        <mxCell id="8x29C2rjjVVS6na5q4yD-37" value="B" style="text;html=1;strokeColor=none;fillColor=none;align=center;verticalAlign=middle;whiteSpace=wrap;rounded=0;fontSize=18;fontStyle=1" vertex="1" parent="1">
          <mxGeometry x="188.75" y="352.5" width="62.5" height="30" as="geometry" />
        </mxCell>
        <mxCell id="8x29C2rjjVVS6na5q4yD-38" value="A" style="text;html=1;strokeColor=none;fillColor=none;align=center;verticalAlign=middle;whiteSpace=wrap;rounded=0;fontSize=18;fontStyle=1" vertex="1" parent="1">
          <mxGeometry x="256.25" y="355" width="62.5" height="30" as="geometry" />
        </mxCell>
        <mxCell id="8x29C2rjjVVS6na5q4yD-39" value="I" style="text;html=1;strokeColor=none;fillColor=none;align=center;verticalAlign=middle;whiteSpace=wrap;rounded=0;fontSize=20;fontStyle=1" vertex="1" parent="1">
          <mxGeometry x="275" y="410" width="25" height="30" as="geometry" />
        </mxCell>
        <mxCell id="8x29C2rjjVVS6na5q4yD-40" value="II" style="text;html=1;strokeColor=none;fillColor=none;align=center;verticalAlign=middle;whiteSpace=wrap;rounded=0;fontSize=20;fontStyle=1" vertex="1" parent="1">
          <mxGeometry x="207.5" y="406.25" width="25" height="37.5" as="geometry" />
        </mxCell>
        <mxCell id="8x29C2rjjVVS6na5q4yD-41" value="III" style="text;html=1;strokeColor=none;fillColor=none;align=center;verticalAlign=middle;whiteSpace=wrap;rounded=0;fontSize=20;fontStyle=1" vertex="1" parent="1">
          <mxGeometry x="140" y="410" width="25" height="30" as="geometry" />
        </mxCell>
        <mxCell id="8x29C2rjjVVS6na5q4yD-42" value="Reflector:" style="text;html=1;strokeColor=none;fillColor=none;align=center;verticalAlign=middle;whiteSpace=wrap;rounded=0;fontSize=20;" vertex="1" parent="1">
          <mxGeometry x="100" y="443.75" width="100" height="30" as="geometry" />
        </mxCell>
        <mxCell id="8x29C2rjjVVS6na5q4yD-43" value="" style="rounded=1;whiteSpace=wrap;html=1;" vertex="1" parent="1">
          <mxGeometry x="190" y="480" width="60" height="40" as="geometry" />
        </mxCell>
        <mxCell id="8x29C2rjjVVS6na5q4yD-44" value="I" style="text;html=1;strokeColor=none;fillColor=none;align=center;verticalAlign=middle;whiteSpace=wrap;rounded=0;fontSize=18;fontStyle=1" vertex="1" parent="1">
          <mxGeometry x="190" y="485" width="60" height="30" as="geometry" />
        </mxCell>
        <mxCell id="8x29C2rjjVVS6na5q4yD-47" value="Confirm" style="strokeWidth=1;shadow=0;dashed=0;align=center;html=1;shape=mxgraph.mockup.buttons.button;strokeColor=#666666;fontColor=#ffffff;mainText=;buttonStyle=round;fontSize=17;fontStyle=1;fillColor=#008cff;whiteSpace=wrap;" vertex="1" parent="1">
          <mxGeometry x="165" y="540" width="110" height="30" as="geometry" />
        </mxCell>
        <mxCell id="8x29C2rjjVVS6na5q4yD-48" value="" style="rounded=1;whiteSpace=wrap;html=1;" vertex="1" parent="1">
          <mxGeometry x="126.25" y="620" width="40" height="30" as="geometry" />
        </mxCell>
        <mxCell id="8x29C2rjjVVS6na5q4yD-49" value="" style="rounded=1;whiteSpace=wrap;html=1;" vertex="1" parent="1">
          <mxGeometry x="177.5" y="620" width="40" height="30" as="geometry" />
        </mxCell>
        <mxCell id="8x29C2rjjVVS6na5q4yD-50" value="G" style="text;html=1;strokeColor=none;fillColor=none;align=center;verticalAlign=middle;whiteSpace=wrap;rounded=0;" vertex="1" parent="1">
          <mxGeometry x="131.25" y="620" width="30" height="30" as="geometry" />
        </mxCell>
        <mxCell id="8x29C2rjjVVS6na5q4yD-51" value="L" style="text;html=1;strokeColor=none;fillColor=none;align=center;verticalAlign=middle;whiteSpace=wrap;rounded=0;" vertex="1" parent="1">
          <mxGeometry x="182.5" y="620" width="30" height="30" as="geometry" />
        </mxCell>
        <mxCell id="8x29C2rjjVVS6na5q4yD-52" value="Swap" style="strokeWidth=1;shadow=0;dashed=0;align=center;html=1;shape=mxgraph.mockup.buttons.button;strokeColor=#666666;fontColor=#ffffff;mainText=;buttonStyle=round;fontSize=17;fontStyle=1;fillColor=#008cff;whiteSpace=wrap;" vertex="1" parent="1">
          <mxGeometry x="228.75" y="620" width="85" height="30" as="geometry" />
        </mxCell>
        <mxCell id="8x29C2rjjVVS6na5q4yD-53" value="&lt;font style=&quot;font-size: 10px;&quot;&gt;F-P&lt;/font&gt;" style="strokeWidth=1;shadow=0;dashed=0;align=center;html=1;shape=mxgraph.mockup.buttons.button;strokeColor=#666666;fontColor=#ffffff;mainText=;buttonStyle=round;fontSize=17;fontStyle=1;fillColor=#008cff;whiteSpace=wrap;" vertex="1" parent="1">
          <mxGeometry x="126.25" y="660" width="62.5" height="20" as="geometry" />
        </mxCell>
        <mxCell id="8x29C2rjjVVS6na5q4yD-54" value="&lt;font style=&quot;font-size: 10px;&quot;&gt;N-T&lt;/font&gt;" style="strokeWidth=1;shadow=0;dashed=0;align=center;html=1;shape=mxgraph.mockup.buttons.button;strokeColor=#666666;fontColor=#ffffff;mainText=;buttonStyle=round;fontSize=17;fontStyle=1;fillColor=#008cff;whiteSpace=wrap;" vertex="1" parent="1">
          <mxGeometry x="191.25" y="660" width="62.5" height="20" as="geometry" />
        </mxCell>
        <mxCell id="8x29C2rjjVVS6na5q4yD-55" value="&lt;font style=&quot;font-size: 10px;&quot;&gt;X-V&lt;/font&gt;" style="strokeWidth=1;shadow=0;dashed=0;align=center;html=1;shape=mxgraph.mockup.buttons.button;strokeColor=#666666;fontColor=#ffffff;mainText=;buttonStyle=round;fontSize=17;fontStyle=1;fillColor=#008cff;whiteSpace=wrap;" vertex="1" parent="1">
          <mxGeometry x="256.25" y="660" width="62.5" height="20" as="geometry" />
        </mxCell>
      </root>
    </mxGraphModel>
  </diagram>
</mxfile>
